<?xml version="1.0" encoding="UTF-8" standalone="no"?>
<!DOCTYPE svg PUBLIC "-//W3C//DTD SVG 1.1//EN" "http://www.w3.org/Graphics/SVG/1.1/DTD/svg11.dtd">
<!-- <svg width="100%" height="100%" viewBox="0 0 1200 480" version="1.1" xmlns="http://www.w3.org/2000/svg" xmlns:xlink="http://www.w3.org/1999/xlink" xml:space="preserve" xmlns:serif="http://www.serif.com/" style="fill-rule:evenodd;clip-rule:evenodd;stroke-linejoin:round;stroke-miterlimit:2;">
    <g transform="matrix(1,0,0,1,-960,-1740)">
        <g>
            <g transform="matrix(1,0,0,1,-2.27374e-13,120)">
                <rect x="1860" y="1980" width="300" height="120" style="fill:rgb(27,255,73);"/>
            </g>
            <g transform="matrix(1,0,0,1,-2.27374e-13,120)">
                <rect x="1560" y="1980" width="300" height="120" style="fill:rgb(18,221,59);"/>
            </g>
            <g transform="matrix(1,0,0,1,-2.27374e-13,120)">
                <rect x="1260" y="1980" width="300" height="120" style="fill:rgb(9,187,45);"/>
            </g>
            <g transform="matrix(1,0,0,1,-2.27374e-13,120)">
                <rect x="960" y="1980" width="300" height="120" style="fill:rgb(0,153,31);"/>
            </g>
            <g transform="matrix(1,0,0,1,-2.27374e-13,120)">
                <rect x="1560" y="1860" width="300" height="120" style="fill:rgb(27,255,73);"/>
            </g>
            <g transform="matrix(1,0,0,1,-2.27374e-13,120)">
                <rect x="1260" y="1860" width="300" height="120" style="fill:rgb(18,221,59);"/>
            </g>
            <g transform="matrix(1,0,0,1,-2.27374e-13,120)">
                <rect x="960" y="1860" width="300" height="120" style="fill:rgb(9,187,45);"/>
            </g>
            <g transform="matrix(1,0,0,1,-60,120)">
                <rect x="1140" y="1740" width="300" height="120" style="fill:rgb(18,221,59);"/>
            </g>
            <g transform="matrix(1,0,0,1,-60,120)">
                <rect x="1440" y="1740" width="300" height="120" style="fill:rgb(27,255,73);"/>
            </g>
            <g transform="matrix(1,0,0,1,-60,120)">
                <rect x="1260" y="1620" width="300" height="120" style="fill:rgb(27,255,73);"/>
            </g>
        </g>
    </g>
</svg> -->


<svg xmlns="http://www.w3.org/2000/svg" width="100%" height="100%" viewBox="0 0 1200 480"   style="shape-rendering:geometricPrecision;text-rendering:geometricPrecision;image-rendering:optimizeQuality;fill-rule:evenodd;clip-rule:evenodd">
 
  <path style="opacity:1" fill="#dc3844" d="M509.5 75.5v24h-46v-24h46Z"/>
  <path style="opacity:1" fill="#e43440" d="M464.5 76.5h44c.166 6.01-.001 12.01-.5 18-1 1.333-2 1.333-3 0 .557-2.34.39-4.674-.5-7-.929 1.189-1.262 2.522-1 4h-4v-3h-3v3h-17c.17 1.322-.163 2.489-1 3.5-4.341.77-8.508.27-12.5-1.5l-1 1c-.499-5.99-.666-11.99-.5-18Z"/>
  <path style="opacity:1" fill="#c1424b" d="M509.5 75.5h1v25a552.805 552.805 0 0 1-47-1h46v-24Z"/>
  <path style="opacity:1" fill="#f8afb2" d="M465.5 74.5c15.176-.33 30.176.004 45 1h-47v24a552.805 552.805 0 0 0 47 1v1h-48v-27h3Z"/>
  <path style="opacity:1" fill="#f8bdbf" d="M509.5 101.5h1v80h-21c6.479-.991 13.146-1.324 20-1v-79Z"/>
  <path style="opacity:1" fill="#c24048" d="M510.5 100.5h21v53h-21v-53Z"/>
  <path style="opacity:1" fill="#e13744" d="M511.5 101.5h19v51h-19v-51Z"/>
  <path style="opacity:1" fill="#4e202d" d="M510.5 153.5h21v159h-42v-52h1c1.458 1.511 3.291 2.511 5.5 3 .756 8.994 1.923 9.161 3.5.5 1.612-.72 3.112-.554 4.5.5 2.947-.409 5.614-1.409 8-3l.5-40.5c-.001-13.85-.667-27.35-2-40.5v-27Z"/>
  <path style="opacity:1" fill="#d96a69" d="m606.5 231.5-2-14v-9a625.298 625.298 0 0 0-50-1v183a8467.762 8467.762 0 0 1-1-184h53v25Z"/>
 
  <path style="opacity:1" fill="#cc585d" d="M489.5 181.5h1v78h19v-78h1v79h-21v-79Z"/>
  <path style="opacity:1" fill="#dc4049" d="M490.5 181.5h19v78h-19v-78Z"/>
  <path style="opacity:1" fill="#ea3844" d="M491.5 182.5h17v76h-17v-76Z"/>
  <path style="opacity:1" fill="#f8a0a2" d="M415.5 231.5v1h-48c.327 9.182-.007 18.182-1 27v-28h49Z"/>
  <path style="opacity:1" fill="#e83945" d="M604.5 208.5v9a62.792 62.792 0 0 1-1 15.5l2 1c15.663.5 31.33.667 47 .5-.166 8.34 0 16.673.5 25 .383.556.883.889 1.5 1a400.456 400.456 0 0 0 40 1 625.298 625.298 0 0 0 1 50c8.15.993 16.483 1.326 25 1v110h-81v-3h-4c-.17-1.322.163-2.489 1-3.5a24.935 24.935 0 0 1 7-.5c-.333-3 1-4.333 4-4v-4c-2.619.268-5.119-.065-7.5-1-.813-7.58-.647-15.08.5-22.5-1.318-.694-2.151-1.527-2.5-2.5-1.653.32-2.653 1.32-3 3a2.428 2.428 0 0 1-.5-2 11.445 11.445 0 0 1 5-3c.973-2.448 1.306-5.115 1-8a18.991 18.991 0 0 1-8-1.5c2.369-.536 4.369-1.703 6-3.5l4 1c1.333-1.333 1.333-2.667 0-4-.925 1.141-1.759 1.141-2.5 0-1.009-1.525-1.509-3.192-1.5-5a11.988 11.988 0 0 0-6 1c-1.717-1.168-2.384-2.835-2-5a40.842 40.842 0 0 0-14 1.5c-1.284 1.297-1.117 2.464.5 3.5 1.043-3.726 1.543-3.393 1.5 1-4.131.901-7.464 3.068-10 6.5a31.426 31.426 0 0 1 3 11.5c-.056 2.14-.723 3.806-2 5-.06-.543-.393-.876-1-1-1.521 1.437-3.355 2.104-5.5 2-4.066-1.1-8.066-1.1-12 0a32.462 32.462 0 0 1-.5-8h-8v-8h-7a32.462 32.462 0 0 1-.5 8c-3.73-.96-7.563-1.293-11.5-1v4h-3c-.419-6.064-1.086-12.398-2-19a6.802 6.802 0 0 0-1.5 3c.087-33.791-.413-67.457-1.5-101v-54h49Z"/>
  <path style="opacity:1" fill="#c53c43" d="M415.5 232.5a552.805 552.805 0 0 1-47 1c.638 9.395-.029 18.395-2 27v-1c.993-8.818 1.327-17.818 1-27h48Z"/>
  <path style="opacity:1" fill="#dd5256" d="m604.5 217.5 2 14h48v29c-.617-.111-1.117-.444-1.5-1-.5-8.327-.666-16.66-.5-25-15.67.167-31.337 0-47-.5l-2-1a62.792 62.792 0 0 0 1-15.5Z"/>
  
  <path style="opacity:1" fill="#e83945" d="M443.5 394.5c-.617.111-1.117.444-1.5 1-.5 30.332-.667 60.665-.5 91a55.155 55.155 0 0 0-14.5 1c.155 16.365-.679 32.365-2.5 48a29.23 29.23 0 0 0-9-1 49.369 49.369 0 0 1-1-11c-5.333-.333-5.333-.667 0-1a140.486 140.486 0 0 0-2.5-33c-1.186-2.177-3.019-3.177-5.5-3v-19h3a60.931 60.931 0 0 1 .5-11c-.179 5.34 1.321 10.007 4.5 14a16.873 16.873 0 0 0 1-8h3c-1-6.333 1.667-9 8-8l2-6h4c.239-1.967-.094-3.801-1-5.5-7.995-2.506-10.995.328-9 8.5h-4a80.554 80.554 0 0 0 1-8.5 175.313 175.313 0 0 1-3-19.5 3250.18 3250.18 0 0 0-114-1c.332-34.504-.002-68.837-1-103v-7c7.852.325 15.518-.008 23-1 .667 0 1-.333 1-1a600.937 600.937 0 0 0 1-49c13.51.329 26.844-.004 40-1 1.971-8.605 2.638-17.605 2-27 15.842.33 31.509-.004 47-1v-1c.992-7.816 1.326-15.816 1-24h50v185c-8.073-.632-15.74.035-23 2Z"/>
 
  <path style="opacity:1" fill="#5f1d25" d="M510.5 180.5c1.333 13.15 1.999 26.65 2 40.5l-.5 40.5c-2.386 1.591-5.053 2.591-8 3-1.388-1.054-2.888-1.22-4.5-.5-1.577 8.661-2.744 8.494-3.5-.5-2.209-.489-4.042-1.489-5.5-3h20v-80Z"/>
  
  <path style="opacity:1" fill="#c63b43" d="M654.5 260.5h41v51a625.298 625.298 0 0 1-1-50 400.456 400.456 0 0 1-40-1Z"/>
  <path style="opacity:1" fill="#d94349" d="M604.5 208.5h-49v184c8.252-.316 16.419.018 24.5 1 .5 30.998.667 61.998.5 93 4.794-.597 9.127.07 13 2h-14c.167-31.335 0-62.668-.5-94a153.949 153.949 0 0 0-24.5-1v-186c16.842-.33 33.508.003 50 1Z"/>

  <path style="opacity:1" fill="#fdcecd" d="M422.5 285.5c-2.111-.88-4.111-.88-6 0 1.274-2.493 1.94-5.159 2-8 1.322-.17 2.489.163 3.5 1 .497 2.31.663 4.643.5 7Z"/>
  <path style="opacity:1" fill="#c83d42" d="M366.5 260.5a400.456 400.456 0 0 1-40 1 600.937 600.937 0 0 1-1 49v-50h41Z"/>
  <path style="opacity:1" fill="#fdf1e9" d="M600.5 277.5c1.322-.17 2.489.163 3.5 1l1 6c.414.457.914.791 1.5 1a81.224 81.224 0 0 1 .5 22c-2.165 2.153-2.998 4.819-2.5 8h-5a13.116 13.116 0 0 0-1-7c-2.003-1.633-3.336-3.633-4-6a29.753 29.753 0 0 0-7-2c-.163-2.357.003-4.69.5-7a15.256 15.256 0 0 1 4.5-1.5c1.799-3.132 4.299-5.632 7.5-7.5-.665-2.363-.498-4.696.5-7Z"/>
  <path style="opacity:1" fill="#fdf2eb" d="M422.5 285.5c1.524.674 2.858 1.674 4 3 .886.825 1.219 1.825 1 3a29.753 29.753 0 0 0 7 2v6a78.468 78.468 0 0 0-12 9c-.961 1.765-1.295 3.765-1 6h-3v-7h-4c-1.319-6.844-1.319-13.844 0-21 .683-.363 1.35-.696 2-1 1.889-.88 3.889-.88 6 0Z"/>
  <path style="opacity:1" fill="#faaba9" d="M366.5 259.5v1h-41v50c0 .667-.333 1-1 1h-24v113h115v1h-116v-115h25v-51h42Z"/>
  <path style="opacity:1" fill="#e4c7ca" d="M531.5 100.5c.999 70.831 1.333 141.831 1 213-1.599.268-2.932-.066-4-1h3v-212Z"/>
  <path style="opacity:1" fill="#f1aead" d="M695.5 260.5a625.298 625.298 0 0 1 1 50h12c4.532-.318 8.866.015 13 1h-26v-51Z"/>
  <path style="opacity:1" fill="#fec6c1" d="M414.5 307.5h4v7h3c-.295-2.235.039-4.235 1-6v7h-5v-7c-1.291.237-2.291-.096-3-1Z"/>
  
  <path style="opacity:1" fill="#e24046" d="M639.5 379.5a11.445 11.445 0 0 0-5 3c-1.983 1.402-3.649 3.236-5 5.5a4.934 4.934 0 0 1-3 .5c.928 5.075-1.072 8.408-6 10l-2-1c-3.491 1.594-7.158 2.261-11 2a32.462 32.462 0 0 1 .5-8c.837 1.507 2.004 2.007 3.5 1.5-.994-1.329-1.994-2.662-3-4a12.992 12.992 0 0 0 1-5.5c1.277-1.194 1.944-2.86 2-5a31.426 31.426 0 0 0-3-11.5c2.536-3.432 5.869-5.599 10-6.5.043-4.393-.457-4.726-1.5-1-1.617-1.036-1.784-2.203-.5-3.5a40.842 40.842 0 0 1 14-1.5c-.384 2.165.283 3.832 2 5a11.988 11.988 0 0 1 6-1c-.009 1.808.491 3.475 1.5 5 .741 1.141 1.575 1.141 2.5 0 1.333 1.333 1.333 2.667 0 4l-4-1c-1.631 1.797-3.631 2.964-6 3.5a18.991 18.991 0 0 0 8 1.5c.306 2.885-.027 5.552-1 8Z"/>
  <path style="opacity:1" fill="#e18183" d="M402.5 356.5h3v6a20.514 20.514 0 0 0-3-6Z"/>
  <path style="opacity:1" fill="#f2d1ce" d="M520.5 370.5h-3c-.467-2.211-1.467-4.211-3-6-.683.363-1.35.696-2 1 .009-1.808-.491-3.475-1.5-5a4.934 4.934 0 0 0-.5 3h-1c-.913-1.586-.913-3.086 0-4.5 1.909-.448 3.076.385 3.5 2.5l1-1a75.623 75.623 0 0 0 6.5 10Z"/>
  <path style="opacity:1" fill="#fdf4e9" d="M639.5 379.5c-4.179-.843-7.179.49-9 4-2.481.274-4.147 1.607-5 4a246.697 246.697 0 0 0-2 7 6.846 6.846 0 0 1-4 1 9.86 9.86 0 0 0-1-6 173.55 173.55 0 0 1-4-3 116.8 116.8 0 0 1 1-21c.645-1.312 1.645-2.312 3-3a9.86 9.86 0 0 0 1-6h4a15.418 15.418 0 0 0 1 7l9 9a9.86 9.86 0 0 0 6 1v6Z"/>
  <path style="opacity:1" fill="#fdf6ec" d="M402.5 356.5a20.514 20.514 0 0 1 3 6c1.295.988 2.628 1.988 4 3 .166 6.675 0 13.342-.5 20-3.457-.642-6.79.024-10 2-.422-1.926-1.589-2.926-3.5-3-1.871-1.354-3.537-3.021-5-5a13.116 13.116 0 0 0-7-1v-5a12.93 12.93 0 0 0 5-.5 52.108 52.108 0 0 1 8-5.5c2.505-3.529 4.505-7.196 6-11Z"/>
  <path style="opacity:1" fill="#d6494c" d="M410.5 365.5c1.321 3.098 1.988 6.598 2 10.5l-.5 10.5c-.657 3.185-2.657 4.852-6 5-.21 1.558-.71 2.891-1.5 4a18.453 18.453 0 0 1 .5-6l5-2c.5-7.326.666-14.659.5-22Z"/>
  <path style="opacity:1" fill="#fdc2ba" d="M615.5 365.5a116.8 116.8 0 0 0-1 21c-.665-3.317-.999-6.817-1-10.5.012-3.902.679-7.402 2-10.5Z"/>
  <path style="opacity:1" fill="#c93e44" d="M467.5 206.5v188h-24c7.26-1.965 14.927-2.632 23-2v-185h-50c.326 8.184-.008 16.184-1 24v-25h52Z"/>
  <path style="opacity:1" fill="#66212b" d="M520.5 370.5a13.227 13.227 0 0 1 2 5c3.41-.116 4.744 1.55 4 5 3 .333 4.667 2 5 5v24h-1c.166-8.673 0-17.34-.5-26l-1 2a26.091 26.091 0 0 1-3.5-5 9.86 9.86 0 0 0-6-1v-4h-7v34h-1a484.723 484.723 0 0 1 1-44c.65-.304 1.317-.637 2-1 1.533 1.789 2.533 3.789 3 6h3Z"/>
  <path style="opacity:1" fill="#53222d" d="M530.5 409.5h-18v-34h7v4a9.86 9.86 0 0 1 6 1 26.091 26.091 0 0 0 3.5 5l1-2c.5 8.66.666 17.327.5 26Z"/>
  <path style="opacity:1" fill="#e53b44" d="M509.5 363.5h1v45c-6.522-.323-12.855.01-19 1v1c-.994 9.819-1.327 19.819-1 30h-22v-31h3v-3c3.074-2.51 5.407-5.51 7-9h3v-4h3v-3h3l4-8c1.175.219 2.175-.114 3-1a66.395 66.395 0 0 0 8-11c.825-.886 1.825-1.219 3-1 .448-2.672 1.781-4.672 4-6Z"/>
  <path style="opacity:1" fill="#ffd3cb" d="M409.5 365.5h1c.166 7.341 0 14.674-.5 22l-5 2a18.453 18.453 0 0 0-.5 6h-5c.381-4.348-.953-8.014-4-11 1.911.074 3.078 1.074 3.5 3 3.21-1.976 6.543-2.642 10-2 .5-6.658.666-13.325.5-20Z"/>
  <path style="opacity:1" fill="#b2313b" d="M512.5 365.5a484.723 484.723 0 0 0-1 44h-20c6.145-.99 12.478-1.323 19-1v-45a4.934 4.934 0 0 1 .5-3c1.009 1.525 1.509 3.192 1.5 5Z"/>
  <path style="opacity:1" fill="#50202e" d="M554.5 395.5c2.162.397 3.495 1.731 4 4 3.592-2.534 7.259-2.534 11 0a6.895 6.895 0 0 0 4-2c1.024 1.353 2.357 2.02 4 2a639.972 639.972 0 0 0-1 43 1705.02 1705.02 0 0 1 1.5 47 55.155 55.155 0 0 0 14.5 1 552.805 552.805 0 0 0 1 47v1a120.655 120.655 0 0 0 0 31c8.15.993 16.483 1.326 25 1 .167 12.338 0 24.671-.5 37a9.454 9.454 0 0 1-2.5 1.5c-6.007.2-12.007-.133-18-1a20.532 20.532 0 0 0-2.5-4.5 145.24 145.24 0 0 0-1.5-16.5c-9.661-.5-19.328-.666-29-.5.167-33.002 0-66.002-.5-99a55.155 55.155 0 0 0-14.5-1 268.978 268.978 0 0 1 1-32.5 19.602 19.602 0 0 0-2-3.5c.306-2.885-.027-5.552-1-8v-1h8c.328-11.179-.005-22.179-1-33v-13Z"/>
  <path style="opacity:1" fill="#571c2c" d="M554.5 395.5v-1c8.042-.236 16.042.097 24 1-.331 31.171.002 62.171 1 93h14v49a552.805 552.805 0 0 1-1-47 55.155 55.155 0 0 1-14.5-1 1705.02 1705.02 0 0 0-1.5-47 639.972 639.972 0 0 1 1-43c-1.643.02-2.976-.647-4-2a6.895 6.895 0 0 1-4 2c-3.741-2.534-7.408-2.534-11 0-.505-2.269-1.838-3.603-4-4Z"/>
  <path style="opacity:1" fill="#54232e" d="M467.5 395.5v46h7v1c-.838.342-1.172 1.008-1 2-2.049.206-2.383 1.039-1 2.5a4.934 4.934 0 0 1-3 .5c1.725 7.485 2.225 15.152 1.5 23-1.011.837-2.178 1.17-3.5 1v4h-5v-3a67.844 67.844 0 0 0-15-.5 9.454 9.454 0 0 0-1.5 2.5c-.278-.916-.778-1.582-1.5-2v-77h23Z"/>
  <path style="opacity:1" fill="#cd4145" d="M695.5 311.5h26v113h-115v26h-1c-1.328-9.068-1.328-18.235 0-27.5 11.328-.5 22.662-.667 34-.5h81v-110c-8.517.326-16.85-.007-25-1Z"/>
  <path style="opacity:1" fill="#bb3637" d="M324.5 311.5c-7.482.992-15.148 1.325-23 1v111c38.17-.332 76.17.001 114 1h-115v-113h24Z"/>
  <path style="opacity:1" fill="#ca7e7d" d="M491.5 410.5v-1h40v31c-.994-9.819-1.327-19.819-1-30h-39Z"/>
  <path style="opacity:1" fill="#cd4146" d="M531.5 385.5h3a71.77 71.77 0 0 0 6 11h3v3h3v3c1.175-.219 2.175.114 3 1 1.32 1.991 2.654 3.991 4 6 .607-.124.94-.457 1-1 .995 10.821 1.328 21.821 1 33h-8c-5.526.321-10.86-.012-16-1v-55Z"/>
  <path style="opacity:1" fill="#e53a40" d="M543.5 399.5a54.7 54.7 0 0 0 4 5.5 3.647 3.647 0 0 0-1 1.5c2.619.476 4.619 1.809 6 4a225.771 225.771 0 0 1 1 30h-21c-.167-17.337 0-34.67.5-52 1.319 1.75 1.819 3.75 1.5 6 3.41-.116 4.744 1.55 4 5h5Z"/>
  <path style="opacity:1" fill="#631622" d="M443.5 394.5h24v1h-23v77a73.133 73.133 0 0 1-1 17 46.755 46.755 0 0 1-13 1v28c.323 6.522-.01 12.855-1 19v-47c4.215-1.936 8.881-2.603 14-2v-94Z"/>
  <path style="opacity:1" fill="#d34d54" d="M471.5 406.5v3h-3v31h22c-.327-10.181.006-20.181 1-30v31h-24v-33c1.699-.027 3.033-.694 4-2Z"/>
  <path style="opacity:1" fill="#812635" d="M554.5 394.5v-1c8.252-.316 16.419.018 24.5 1 .5 31.332.667 62.665.5 94a2163.924 2163.924 0 0 1-1-93 168.704 168.704 0 0 0-24-1Z"/>
  <path style="opacity:1" fill="#cb5659" d="M721.5 451.5h-77a361.608 361.608 0 0 1-1 38v-39c26.172-.331 52.172.002 78 1Z"/>
  <path style="opacity:1" fill="#e73a44" d="M555.5 262.5a2888.475 2888.475 0 0 1 1.5 101 6.802 6.802 0 0 1 1.5-3c.914 6.602 1.581 12.936 2 19h3v-4c3.937-.293 7.77.04 11.5 1 .497-2.646.664-5.313.5-8h7v8h8a32.462 32.462 0 0 0 .5 8c3.934-1.1 7.934-1.1 12 0 2.145.104 3.979-.563 5.5-2 .607.124.94.457 1 1a12.992 12.992 0 0 1-1 5.5c1.006 1.338 2.006 2.671 3 4-1.496.507-2.663.007-3.5-1.5a32.462 32.462 0 0 0-.5 8c3.842.261 7.509-.406 11-2l2 1c4.928-1.592 6.928-4.925 6-10a4.934 4.934 0 0 0 3-.5c1.351-2.264 3.017-4.098 5-5.5a2.428 2.428 0 0 0 .5 2c.347-1.68 1.347-2.68 3-3 .349.973 1.182 1.806 2.5 2.5-1.147 7.42-1.313 14.92-.5 22.5 2.381.935 4.881 1.268 7.5 1v4c-3-.333-4.333 1-4 4a24.935 24.935 0 0 0-7 .5c-.837 1.011-1.17 2.178-1 3.5h4v3c-11.338-.167-22.672 0-34 .5-1.328 9.265-1.328 18.432 0 27.5 1.885 1.553 2.885 3.553 3 6h3v11h3c-.744 3.45.59 5.116 4 5 .87 6.018 1.87 12.018 3 18a25.879 25.879 0 0 0 10 1c.17 1.322-.163 2.489-1 3.5a32.462 32.462 0 0 1-8 .5c-.277 2.948.056 5.781 1 8.5 4.989.499 9.989.666 15 .5v14c-6.333-1-9 1.667-8 8-2.829-.175-4.496 1.158-5 4a10.258 10.258 0 0 1-1.5-4 15.256 15.256 0 0 1-4.5 1.5l-4 7c1.237.232 2.237.732 3 1.5h-24a552.805 552.805 0 0 0-1-47v-1c-3.873-1.93-8.206-2.597-13-2 .167-31.002 0-62.002-.5-93a153.949 153.949 0 0 0-24.5-1v-130Z"/>
  <path style="opacity:1" fill="#fbb2ac" d="M630.5 383.5c-1.306.967-1.973 2.301-2 4h-3c.853-2.393 2.519-3.726 5-4Z"/>
  <path style="opacity:1" fill="#e73945" d="M605.5 450.5h17a380.934 380.934 0 0 0 1 39h20a361.608 361.608 0 0 0 1-38h76v1c-12.005-.167-24.005 0-36 .5a10.258 10.258 0 0 0-4 1.5 31.116 31.116 0 0 0 11 1v8c-1.322-.17-2.489.163-3.5 1a97.59 97.59 0 0 0 .5 14h15v10h-16a339.915 339.915 0 0 1 1 31h3a18.453 18.453 0 0 1 .5-6c.417 1.256 1.25 1.923 2.5 2-.326 8.849.007 17.516 1 26 0 .667.333 1 1 1 7.816.992 15.816 1.326 24 1v43c-.79-1.109-1.29-2.442-1.5-4a42.36 42.36 0 0 1-8.5 1.5c1.091 2.064 1.258 4.231.5 6.5-2.77.825-5.437 1.159-8 1a24.935 24.935 0 0 1-.5-7h-6v7c-9.098-1.315-18.098-1.315-27 0h-1a600.937 600.937 0 0 0-1 49h-23c.332-33.837-.002-67.504-1-101v-3h-25c-.763-.768-1.763-1.268-3-1.5l4-7a15.256 15.256 0 0 0 4.5-1.5 10.258 10.258 0 0 0 1.5 4c.504-2.842 2.171-4.175 5-4-1-6.333 1.667-9 8-8v-14a112.97 112.97 0 0 1-15-.5c-.944-2.719-1.277-5.552-1-8.5a32.462 32.462 0 0 0 8-.5c.837-1.011 1.17-2.178 1-3.5a25.879 25.879 0 0 1-10-1 423.098 423.098 0 0 1-3-18c-3.41.116-4.744-1.55-4-5h-3v-11h-3c-.115-2.447-1.115-4.447-3-6Z"/>
  <path style="opacity:1" fill="#e93643" d="M720.5 452.5v61a182.28 182.28 0 0 0-25-1.5c-.837 1.011-1.17 2.178-1 3.5-1.25-.077-2.083-.744-2.5-2a18.453 18.453 0 0 0-.5 6h-3a339.915 339.915 0 0 0-1-31h16v-10h-15a97.59 97.59 0 0 1-.5-14c1.011-.837 2.178-1.17 3.5-1v-8a31.116 31.116 0 0 1-11-1 10.258 10.258 0 0 1 4-1.5c11.995-.5 23.995-.667 36-.5Z"/>
  <path style="opacity:1" fill="#614346" d="M547.5 442.5c.973 2.448 1.306 5.115 1 8v37c4.863-.319 9.53.014 14 1h-15v-46Z"/>
  <path style="opacity:1" fill="#fcf8ef" d="M491.5 410.5h39c-.327 10.181.006 20.181 1 30 5.14.988 10.474 1.321 16 1v47h15a2500.447 2500.447 0 0 1 1 100h29v24h27a484.723 484.723 0 0 0 1-44c-8.849-.326-17.516.007-26 1h-1a120.655 120.655 0 0 1 0-31h49v183h-22v-45h-26c.64-10.058-.027-19.725-2-29-.321-1.548-1.321-2.215-3-2l-2-6h-3l-4-9h-3v-3c-1.175.219-2.175-.114-3-1-1.502-2.616-3.502-4.616-6-6-.229-1.933-1.062-3.6-2.5-5a8.43 8.43 0 0 0-.5 4c-2.164.221-3.83 1.221-5 3-3.02 2.023-5.354 4.69-7 8-3.072.801-4.738 2.801-5 6-2.607 1.212-4.274 3.212-5 6a8.941 8.941 0 0 1-4 3 31.147 31.147 0 0 0-2 2c-.667-46.498-1.333-92.832-2-139h-13c.323-6.522-.01-12.855-1-19h-22v18a55.155 55.155 0 0 1-14.5-1c-1.158.498-1.991 1.331-2.5 2.5 1.219 2.384 1.219 4.717 0 7a9.454 9.454 0 0 1 1.5 2.5c.168 31.169.668 62.169 1.5 93v38c-3.56-3.311-6.894-6.978-10-11-.825-.886-1.825-1.219-3-1-1.83-3.575-4.163-6.908-7-10-.929-1.189-1.262-2.522-1-4h-4v-3h-3v-6h-3c-.17 1.322.163 2.489 1 3.5-.916.278-1.582.778-2 1.5a95.23 95.23 0 0 1-15 17 5.576 5.576 0 0 0-1 3 40.658 40.658 0 0 0-7 8c-.996-.086-1.829.248-2.5 1-.5 9.327-.666 18.661-.5 28h-26v46h-22v-184h49c-.3 10.149-.3 20.149 0 30-9.182-.327-18.182.007-27 1v43h28v-23h29v-100c0-.667.333-1 1-1h15v-47h17v-31Z"/>
  <path style="opacity:1" fill="#ca4748" d="M399.5 450.5h16c-4.805.987-9.805 1.321-15 1a361.608 361.608 0 0 1-1 38v-39Z"/>
  <path style="opacity:1" fill="#684a4a" d="M474.5 442.5v46h-15c4.47-.986 9.137-1.319 14-1v-43c-.172-.992.162-1.658 1-2Z"/>
  <path style="opacity:1" fill="#e53a45" d="M301.5 319.5a2652.905 2652.905 0 0 1 1 103c38.006-.333 76.006 0 114 1a175.313 175.313 0 0 0 3 19.5 80.554 80.554 0 0 1-1 8.5h4c-1.995-8.172 1.005-11.006 9-8.5.906 1.699 1.239 3.533 1 5.5h-4l-2 6c-6.333-1-9 1.667-8 8h-3a16.873 16.873 0 0 1-1 8c-3.179-3.993-4.679-8.66-4.5-14a60.931 60.931 0 0 0-.5 11h-3v19c2.481-.177 4.314.823 5.5 3a140.486 140.486 0 0 1 2.5 33c-5.333.333-5.333.667 0 1a49.369 49.369 0 0 0 1 11 29.23 29.23 0 0 1 9 1l-45 2a441.579 441.579 0 0 0-1 42 478.51 478.51 0 0 0-3-38.5 3.943 3.943 0 0 1 1-2c-2.535-.617-4.868-.117-7 1.5a6.547 6.547 0 0 1-3-3c-1.189-.929-2.522-1.262-4-1v6c-6.342-.166-12.675 0-19 .5-.935 2.381-1.268 4.881-1 7.5-7-1.667-9.667 1-8 8-2.619-.268-5.119.065-7.5 1a90.12 90.12 0 0 0 .5 15h-7a98.432 98.432 0 0 0 .5 14 3.647 3.647 0 0 1 1.5-1c1.195 1.797 2.862 2.797 5 3v1a1089.684 1089.684 0 0 0-1 66v81a2671.552 2671.552 0 0 1-3-106.5 18.856 18.856 0 0 0-3-8.5 6.802 6.802 0 0 0-1.5 3c-1.935-2.259-4.435-3.259-7.5-3v8h-4v9h-3v6h3v10h-3a18.453 18.453 0 0 1-.5 6l-1-9c-.167 51.835-.667 103.502-1.5 155v-265c8.403.634 16.403-.033 24-2v-26a324.095 324.095 0 0 1-24-2.5 4.457 4.457 0 0 0 2-1.5 885.988 885.988 0 0 1-1-59h74a361.608 361.608 0 0 1 1 38c7.519.325 14.852-.008 22-1a361.608 361.608 0 0 0 1-38c5.195.321 10.195-.013 15-1v-26c-37.83-.999-75.83-1.332-114-1v-104Z"/>
  <path style="opacity:1" fill="#da7574" d="M399.5 450.5v39c-7.148.992-14.481 1.325-22 1a361.608 361.608 0 0 0-1-38 1444.401 1444.401 0 0 0-76-1v63a507.055 507.055 0 0 1-1-45v-19h79v39h20a380.934 380.934 0 0 1 1-39Z"/>
  <path style="opacity:1" fill="#f9999a" d="M615.5 450.5c2.448-.973 5.115-1.306 8-1v40a380.934 380.934 0 0 1-1-39h-7Z"/>
  <path style="opacity:1" fill="#d64147" d="M376.5 452.5h-74a885.988 885.988 0 0 0 1 59 4.457 4.457 0 0 1-2 1.5 324.095 324.095 0 0 0 24 2.5c-8.517.326-16.85-.007-25-1v-63c25.505-.331 50.839.002 76 1Z"/>
  <path style="opacity:1" fill="#53222e" d="M521.5 489.5v20h10c-.111.617-.444 1.117-1 1.5 1.224 2.39 1.724 4.89 1.5 7.5a108.3 108.3 0 0 1-11.5 2c.256 2.292-.077 4.459-1 6.5a8.43 8.43 0 0 0 4 .5 128.507 128.507 0 0 1-.5 16l-1.5 3c1.158 5.57 3.158 10.737 6 15.5a1208.45 1208.45 0 0 0-.5 13.5l-3.5 3.5c1.607 1.049 2.273 2.549 2 4.5 1.478-.262 2.811.071 4 1 1.652 4.549 2.152 9.215 1.5 14-1.049-1.607-2.549-2.273-4.5-2 .262-1.478-.071-2.811-1-4a9.86 9.86 0 0 0-1 6h5c-.247 3.087-1.247 5.92-3 8.5.944 2.719 1.277 5.552 1 8.5h-8v8h8v8h-4v8h4c.451-4.806 1.118-4.972 2-.5a48.801 48.801 0 0 0-2 8.5 4.934 4.934 0 0 1 3 .5c-1.135 4.748-1.302 9.581-.5 14.5a95.906 95.906 0 0 0 3.5-16c.432 1.21 1.099 2.21 2 3a2026.42 2026.42 0 0 0 1 90c.111.617.444 1.117 1 1.5 7.247.812 14.414.646 21.5-.5.5-20.997.667-41.997.5-63h14c2.475-1.187 3.475-3.187 3-6a231.633 231.633 0 0 0 14.5-2l1 3a2229.67 2229.67 0 0 0 1.5 67h8a361.608 361.608 0 0 0 1-38h17v89h24v-68c.609 10.323 1.609 21.323 3 33a250.683 250.683 0 0 0 2-23c2.524.071 4.524-.929 6-3 .782 4.331 1.116 8.998 1 14h12v4h3v-3h5v-3c6.522.323 12.855-.01 19-1h1v75c-.326 8.184.008 16.184 1 24-5.475.989-11.142 1.322-17 1v24h-1c.166-7.674 0-15.341-.5-23-1.117 1.449-1.784 3.116-2 5-1.627-3.24-4.127-5.573-7.5-7-6.634-.997-13.3-1.33-20-1a51.569 51.569 0 0 1-1-7h8v-8h8v-24h-8v8h-32v8h8v4h4v4h4v8h-16v4h-8v4h-8v8h8c.408 3.099-.759 5.433-3.5 7a40.914 40.914 0 0 0-.5 9h-12v4h-8v-20c-7 1.667-9.667-1-8-8h-8c1.68 7.159-.82 9.493-7.5 7a24.935 24.935 0 0 1-.5-7h-8v-24h-8v8h-8v8h-8v-8h-8v8h-8v8h8v4h16v4h8v8h8c-1.68-7.159.82-9.493 7.5-7a49.226 49.226 0 0 1 0 14c-2.381.935-4.881 1.268-7.5 1 1.667 7-1 9.667-8 8v8c7.159-1.68 9.493.82 7 7.5-2.31.497-4.643.663-7 .5v8h-16v8h-24v4h-7c-.934-1.068-1.268-2.401-1-4h-16v8h-8v-8h-8v-8h24v-16h-16v-4h-4v4h-12v-16h-16c1.68 7.159-.82 9.493-7.5 7a24.935 24.935 0 0 1-.5-7h-8v4h-8v-4h-40v-16h-16a61.234 61.234 0 0 1-1 15c-7.489.667-14.822 1.333-22 2-.992-7.482-1.325-15.148-1-23h1c1.517 1.235 3.184 1.235 5 0 1.33-33.498 1.33-66.831 0-100-.787-1.604-2.12-2.271-4-2v-97c2.885.306 5.552-.027 8-1h26v128h22v-68h1c7.816.992 15.816 1.326 24 1a3958.7 3958.7 0 0 0 .5 89 110.563 110.563 0 0 0 25.5.5 3235.88 3235.88 0 0 0 1-113.5h10c4.873.127 6.873-2.206 6-7a4.934 4.934 0 0 0 3-.5c2.698-4.736 3.698-9.903 3-15.5h5a9.86 9.86 0 0 1 1-6c1.166 2.239 2.499 2.239 4 0v-17c.826 4.816 1.326 9.816 1.5 15l.5-68c0-23.01-.667-45.677-2-68v-3c4.863.319 9.53-.014 14-1v-18h22Z"/>
  <path style="opacity:1" fill="#cd3a44" d="M443.5 394.5v94c-5.119-.603-9.785.064-14 2a579.818 579.818 0 0 1-3 47h-47l45-2c1.821-15.635 2.655-31.635 2.5-48a55.155 55.155 0 0 1 14.5-1c-.167-30.335 0-60.668.5-91 .383-.556.883-.889 1.5-1Z"/>
  <path style="opacity:1" fill="#a3353d" d="M429.5 490.5v47h-3a579.818 579.818 0 0 0 3-47Z"/>
  <path style="opacity:1" fill="#531f30" d="M473.5 444.5v43c-4.863-.319-9.53.014-14 1-.667 0-1 .333-1 1h-1a35662.88 35662.88 0 0 0-2.5 85c-1.011.837-2.178 1.17-3.5 1v-24c-3.654.442-7.321.776-11 1a4.934 4.934 0 0 1-.5 3l-1-4a24.935 24.935 0 0 0-.5 7h-6c.167-7.501.167-14.834 0-22a18.453 18.453 0 0 0 6-.5c3.13-7.428.796-10.595-7-9.5 1.606-3.025 1.272-5.692-1-8v-28a46.755 46.755 0 0 0 13-1 73.133 73.133 0 0 0 1-17c.722.418 1.222 1.084 1.5 2a9.454 9.454 0 0 1 1.5-2.5 67.844 67.844 0 0 1 15 .5v3h5v-4c1.322.17 2.489-.163 3.5-1 .725-7.848.225-15.515-1.5-23a4.934 4.934 0 0 0 3-.5c-1.383-1.461-1.049-2.294 1-2.5Z"/>
  <path style="opacity:1" fill="#d63c43" d="M720.5 451.5h1v64h-25c-.993 8.484-1.326 17.151-1 26-.993-8.484-1.326-17.151-1-26-.17-1.322.163-2.489 1-3.5a182.28 182.28 0 0 1 25 1.5v-62Z"/>
  <path style="opacity:1" fill="#4f1e2f" d="M531.5 509.5c1.332 10.646 1.999 21.646 2 33a848.643 848.643 0 0 0 0 51.5l-2 8a317.483 317.483 0 0 1 2 44.5 95.906 95.906 0 0 1-3.5 16c-.802-4.919-.635-9.752.5-14.5a4.934 4.934 0 0 0-3-.5 48.801 48.801 0 0 1 2-8.5c-.882-4.472-1.549-4.306-2 .5h-4v-8h4v-8h-8v-8h8c.277-2.948-.056-5.781-1-8.5 1.753-2.58 2.753-5.413 3-8.5h-5a9.86 9.86 0 0 1 1-6c.929 1.189 1.262 2.522 1 4 1.951-.273 3.451.393 4.5 2 .652-4.785.152-9.451-1.5-14-1.189-.929-2.522-1.262-4-1 .273-1.951-.393-3.451-2-4.5l3.5-3.5c.145-4.586.311-9.086.5-13.5-2.842-4.763-4.842-9.93-6-15.5l1.5-3c.499-5.323.666-10.656.5-16a8.43 8.43 0 0 1-4-.5c.923-2.041 1.256-4.208 1-6.5a108.3 108.3 0 0 0 11.5-2c.224-2.61-.276-5.11-1.5-7.5.556-.383.889-.883 1-1.5Z"/>
  
  <path style="opacity:1" fill="#cd5558" d="M593.5 489.5a552.805 552.805 0 0 1 1 47h49v105h-1v-103h-49v-49Z"/>
  <path style="opacity:1" fill="#501f2c" d="M457.5 489.5v99c-9.515-.327-18.848.006-28 1v23h-28v-43h28v-32c.99-6.145 1.323-12.478 1-19 2.272 2.308 2.606 4.975 1 8 7.796-1.095 10.13 2.072 7 9.5a18.453 18.453 0 0 1-6 .5c.167 7.166.167 14.499 0 22h6c-.163-2.357.003-4.69.5-7l1 4a4.934 4.934 0 0 0 .5-3c3.679-.224 7.346-.558 11-1v24c1.322.17 2.489-.163 3.5-1 .804-28.497 1.638-56.83 2.5-85Z"/>
  <path style="opacity:1" fill="#fcbab8" d="M696.5 515.5v26c8.517-.326 16.85.007 25 1h-25c-.667 0-1-.333-1-1-.326-8.849.007-17.516 1-26Z"/>
  <path style="opacity:1" fill="#e4b6b2" d="M379.5 538.5v-1h50v32h-28c8.818-.993 17.818-1.327 27-1-.3-9.851-.3-19.851 0-30h-49Z"/>
  <path style="opacity:1" fill="#e73745" d="M378.5 579.5v61h-24v-50h-27c-2.138-.203-3.805-1.203-5-3a3.647 3.647 0 0 0-1.5 1 98.432 98.432 0 0 1-.5-14h7a90.12 90.12 0 0 1-.5-15c2.381-.935 4.881-1.268 7.5-1-1.667-7 1-9.667 8-8-.268-2.619.065-5.119 1-7.5 6.325-.5 12.658-.666 19-.5v-6c1.478-.262 2.811.071 4 1a6.547 6.547 0 0 0 3 3c2.132-1.617 4.465-2.117 7-1.5a3.943 3.943 0 0 0-1 2 478.51 478.51 0 0 1 3 38.5Z"/>
  <path style="opacity:1" fill="#f1e5e7" d="M499.5 507.5c-4.47.986-9.137 1.319-14 1v103a4308.286 4308.286 0 0 1-1.5-93 9.454 9.454 0 0 0-1.5-2.5c1.219-2.283 1.219-4.616 0-7 .509-1.169 1.342-2.002 2.5-2.5a55.155 55.155 0 0 0 14.5 1Z"/>
  <path style="opacity:1" fill="#37192b" d="M485.5 511.5c1.333 22.323 2 44.99 2 68l-.5 68c-.174-5.184-.674-10.184-1.5-15v-121Z"/>
  <path style="opacity:1" fill="#755c5a" d="M594.5 569.5c8.484-.993 17.151-1.326 26-1a484.723 484.723 0 0 1-1 44v-43h-25Z"/>
  <path style="opacity:1" fill="#b1969d" d="M457.5 489.5h1v100h-29c9.152-.994 18.485-1.327 28-1v-99Z"/>
  <path style="opacity:1" fill="#e73742" d="M720.5 586.5v228h-24v-230h6c-.163 2.357.003 4.69.5 7 2.563.159 5.23-.175 8-1 .758-2.269.591-4.436-.5-6.5a42.36 42.36 0 0 0 8.5-1.5c.21 1.558.71 2.891 1.5 4Z"/>
  <path style="opacity:1" fill="#f7aaac" d="M327.5 591.5h26v50h-1v-49h-25v65h-1c-.331-22.173.003-44.173 1-66Z"/>
  <path style="opacity:1" fill="#472228" d="M548.5 450.5a19.602 19.602 0 0 1 2 3.5 268.978 268.978 0 0 0-1 32.5c4.93-.303 9.763.031 14.5 1 .5 32.998.667 65.998.5 99 9.672-.166 19.339 0 29 .5a145.24 145.24 0 0 1 1.5 16.5 20.532 20.532 0 0 1 2.5 4.5c5.993.867 11.993 1.2 18 1a9.454 9.454 0 0 0 2.5-1.5c.5-12.329.667-24.662.5-37-8.517.326-16.85-.007-25-1h26v43h-27v-24h-29c.332-33.504-.002-66.838-1-100-4.47-.986-9.137-1.319-14-1v-37Z"/>
  <path style="opacity:1" fill="#411d2a" d="M521.5 489.5c.99 6.145 1.323 12.478 1 19h13v141c-.901-.79-1.568-1.79-2-3a317.483 317.483 0 0 0-2-44.5l2-8a848.643 848.643 0 0 1 0-51.5c-.001-11.354-.668-22.354-2-33h-10v-20Z"/>
  <path style="opacity:1" fill="#c94049" d="M379.5 537.5v104h-26v-50h-26v-1h27v50h24v-61a441.579 441.579 0 0 1 1-42Z"/>
  <path style="opacity:1" fill="#d96c6f" d="m457.5 620.5-4-1c.418-.722 1.084-1.222 2-1.5-.837-1.011-1.17-2.178-1-3.5h3v6Z"/>
  <path style="opacity:1" fill="#ed8a90" d="M668.5 591.5h1c8.517-.326 16.85.007 25 1h-25v49h-1v-50Z"/>
  <path style="opacity:1" fill="#d13c47" d="M643.5 539.5a2550.778 2550.778 0 0 1 1 101h23a600.937 600.937 0 0 1 1-49v50h-25v-102Z"/>
  <path style="opacity:1" fill="#e93b47" d="M568.5 620.5a190.382 190.382 0 0 1 3 19 408.95 408.95 0 0 1 1 35 62.792 62.792 0 0 0-15.5 1 1983.68 1983.68 0 0 0-.5 63h-19c-.633-30.156.034-60.156 2-90v-3a8.941 8.941 0 0 0 4-3c1.977-2.598 4.644-4.432 8-5.5a97.785 97.785 0 0 0 6-8.5l3-6c1.17-1.779 2.836-2.779 5-3a8.43 8.43 0 0 1 .5-4c1.438 1.4 2.271 3.067 2.5 5Z"/>
  <path style="opacity:1" fill="#fabcb6" d="m560.5 622.5-3 6-4 2c1.646-3.31 3.98-5.977 7-8Z"/>
  <path style="opacity:1" fill="#a99286" d="M535.5 508.5c.667 46.168 1.333 92.502 2 139a31.147 31.147 0 0 1 2-2v3c-1.208.734-2.541 1.067-4 1v-141Z"/>
  <path style="opacity:1" fill="#5c242e" d="M457.5 620.5h3v3h4c-.262 1.478.071 2.811 1 4 2.837 3.092 5.17 6.425 7 10 1.175-.219 2.175.114 3 1 3.106 4.022 6.44 7.689 10 11-1.501 2.239-2.834 2.239-4 0a9.86 9.86 0 0 0-1 6h-5c.698 5.597-.302 10.764-3 15.5a4.934 4.934 0 0 1-3 .5c.873 4.794-1.127 7.127-6 7v-2c.166-10.339 0-20.672-.5-31-.191-2.208-.691-4.208-1.5-6a24.93 24.93 0 0 0-1-8 54.056 54.056 0 0 0-3-11Z"/>
  <path style="opacity:1" fill="#db474c" d="m453.5 619.5 4 1a54.056 54.056 0 0 1 3 11c-1.437-2.466-3.437-4.466-6-6a51.28 51.28 0 0 0-6 2c-.401 3.85-2.401 6.183-6 7v3c-2.014-.108-3.68.558-5 2a5.576 5.576 0 0 1 1-3 95.23 95.23 0 0 0 15-17Z"/>
  <path style="opacity:1" fill="#fbc1b9" d="M553.5 630.5c-.272 3.232-1.938 5.232-5 6 .262-3.199 1.928-5.199 5-6Z"/>
  <path style="opacity:1" fill="#dd5457" d="M557.5 628.5a97.785 97.785 0 0 1-6 8.5c-3.356 1.068-6.023 2.902-8 5.5.726-2.788 2.393-4.788 5-6 3.062-.768 4.728-2.768 5-6l4-2Z"/>
  <path style="opacity:1" fill="#4e232f" d="M642.5 641.5h1c3.607 1.324 7.607 1.991 12 2l12-.5c.556-.383.889-.883 1-1.5h8v99h18c-6.145.99-12.478 1.323-19 1v3h-5v3h-3v-4h-12c.116-5.002-.218-9.669-1-14-1.476 2.071-3.476 3.071-6 3a250.683 250.683 0 0 1-2 23c-1.391-11.677-2.391-22.677-3-33h-1v-81Z"/>
  <path style="opacity:1" fill="#701d28" d="M643.5 641.5h25c-.111.617-.444 1.117-1 1.5l-12 .5c-4.393-.009-8.393-.676-12-2Z"/>
  <path style="opacity:1" fill="#f39092" d="M300.5 542.5v273h25v1h-26v-118a6085.37 6085.37 0 0 1 1-156Z"/>
  <path style="opacity:1" fill="#b69696" d="M592.5 647.5c1.973 9.275 2.64 18.942 2 29h-1c.306-9.75-.027-19.416-1-29Z"/>
 
  <path style="opacity:1" fill="#58232a" d="M568.5 620.5c2.498 1.384 4.498 3.384 6 6 .825.886 1.825 1.219 3 1v3h3l4 9h3l2 6c1.679-.215 2.679.452 3 2a218.833 218.833 0 0 1 1 29v63a2229.67 2229.67 0 0 1-1.5-67l-1-3a231.633 231.633 0 0 1-14.5 2c.475 2.813-.525 4.813-3 6v-1c.167-11.005 0-22.005-.5-33-.21-1.558-.71-2.891-1.5-4a190.382 190.382 0 0 0-3-19Z"/>
  <path style="opacity:1" fill="#ba3643" d="M461.5 639.5c.809 1.792 1.309 3.792 1.5 6 .5 10.328.666 20.661.5 31h-12c3.462-.982 7.129-1.315 11-1a454.485 454.485 0 0 0-1-36Z"/>
  <path style="opacity:1" fill="#c5393e" d="M325.5 541.5c-7.597 1.967-15.597 2.634-24 2v271c8.184-.326 16.184.008 24 1h-25v-273a163.67 163.67 0 0 0 25-1Z"/>
  <path style="opacity:1" fill="#fdf9f0" d="M352.5 641.5h-8v98h-17v-147h25v49Z"/>
  <path style="opacity:1" fill="#e83e47" d="M430.5 647.5c-.166 8.673 0 17.34.5 26 .953-2.092 2.286-2.425 4-1 .186 2.4.686 4.734 1.5 7 2.995 1.825 3.662 4.325 2 7.5-2.31.497-4.643.663-7 .5-.3 4.599.033 9.099 1 13.5a1722.502 1722.502 0 0 0-3 82.5c.658-28.353-.008-56.353-2-84h-25v-21c8.734.635 17.067-.032 25-2-.166-9.339 0-18.673.5-28 .671-.752 1.504-1.086 2.5-1Z"/>
  <path style="opacity:1" fill="#ea3741" d="M460.5 631.5a24.93 24.93 0 0 1 1 8 454.485 454.485 0 0 1 1 36c-3.871-.315-7.538.018-11 1a3137.289 3137.289 0 0 0-1 112h-21v-5a1722.502 1722.502 0 0 1 3-82.5c-.967-4.401-1.3-8.901-1-13.5 2.357.163 4.69-.003 7-.5 1.662-3.175.995-5.675-2-7.5a26.724 26.724 0 0 1-1.5-7c-1.714-1.425-3.047-1.092-4 1-.5-8.66-.666-17.327-.5-26a40.658 40.658 0 0 1 7-8c1.32-1.442 2.986-2.108 5-2v-3c3.599-.817 5.599-3.15 6-7a51.28 51.28 0 0 1 6-2c2.563 1.534 4.563 3.534 6 6Z"/>
  <path style="opacity:1" fill="#66484e" d="M352.5 641.5h1c-2.448.973-5.115 1.306-8 1v97h-1v-98h8Z"/>
  <path style="opacity:1" fill="#bb8f92" d="M694.5 592.5a5476.785 5476.785 0 0 1 1 148h-19v-99a2401.328 2401.328 0 0 1 1 98h17v-147Z"/>
  <path style="opacity:1" fill="#dd9596" d="M594.5 676.5h26v45h22v1h-23v-45c-8.517.326-16.85-.007-25-1Z"/>
  <path style="opacity:1" fill="#fdf8ef" d="M694.5 592.5v147h-17c.332-32.838-.002-65.504-1-98h-7v-49h25Z"/>
  <path style="opacity:1" fill="#d05457" d="M427.5 676.5c-7.933 1.968-16.266 2.635-25 2v21h25v1h-26v-24h26Z"/>
  <path style="opacity:1" fill="#c13a45" d="M571.5 639.5c.79 1.109 1.29 2.442 1.5 4 .5 10.995.667 21.995.5 33h-15v63h-22a2026.42 2026.42 0 0 1-1-90c1.459.067 2.792-.266 4-1a1037.349 1037.349 0 0 0-2 90h19c-.167-21.003 0-42.003.5-63a62.792 62.792 0 0 1 15.5-1 408.95 408.95 0 0 0-1-35Z"/>
  <path style="opacity:1" fill="#7b1b27" d="M601.5 700.5h18v1h-17a361.608 361.608 0 0 1-1 38v-39Z"/>
  <path style="opacity:1" fill="#ffbdbe" d="M326.5 657.5h1v82h17c-5.475.989-11.142 1.322-17 1-.838-.342-1.172-1.008-1-2v-81Z"/>
  <path style="opacity:1" fill="#e73744" d="M326.5 738.5c-.172.992.162 1.658 1 2 6.813.991 13.813 1.325 21 1v98h-22c.325-7.852-.008-15.518-1-23v-1c-7.816-.992-15.816-1.326-24-1v-6c.833-51.498 1.333-103.165 1.5-155l1 9c.495-1.973.662-3.973.5-6h3v-10h-3v-6h3v-9h4v-8c3.065-.259 5.565.741 7.5 3a6.802 6.802 0 0 1 1.5-3 18.856 18.856 0 0 1 3 8.5 2671.552 2671.552 0 0 0 3 106.5Z"/>
  <path style="opacity:1" fill="#ce3f49" d="M593.5 676.5h1c8.15.993 16.483 1.326 25 1v23h-17c5.14-.988 10.474-1.321 16-1v-21h-23v60h5v-37c0-.667.333-1 1-1v39h-8v-63Z"/>
  <path style="opacity:1" fill="#f63c44" d="M600.5 701.5v34h-4a183.078 183.078 0 0 1 1-27c.438-2.795 1.438-5.128 3-7Z"/>
  <path style="opacity:1" fill="#ea3f49" d="M602.5 700.5h-1c-.667 0-1 .333-1 1-1.562 1.872-2.562 4.205-3 7a183.078 183.078 0 0 0-1 27h4v3h-5v-60h23v21c-5.526-.321-10.86.012-16 1Z"/>
 
  <path style="opacity:1" fill="#de3d49" d="M451.5 676.5v113h-23c.331-29.838-.002-59.505-1-89v-1c1.992 27.647 2.658 55.647 2 84v5h21c-.332-37.504.002-74.837 1-112Z"/>
  <path style="opacity:1" fill="#6d1b25" d="M573.5 676.5v1h-14c.167 21.003 0 42.003-.5 63-7.086 1.146-14.253 1.312-21.5.5-.556-.383-.889-.883-1-1.5h22v-63h15Z"/>
  <path style="opacity:1" fill="#c63e46" d="M379.5 722.5h22v47h-22v-47Z"/>
  <path style="opacity:1" fill="#e43b40" d="M380.5 723.5h20v45h-20v-45Z"/>
  <path style="opacity:1" fill="#a6283a" d="M401.5 701.5v-1h26a1981.572 1981.572 0 0 1 1 89h23c-7.816.992-15.816 1.326-24 1v-89h-26Z"/>
  <path style="opacity:1" fill="#fef2f0" d="M299.5 698.5v118h26v24c-.992-7.148-1.325-14.481-1-22a218.922 218.922 0 0 0-23 0 10.258 10.258 0 0 1-4-1.5c-.049-32.586.284-65.419 1-98.5-.324-6.854.009-13.521 1-20Z"/>
  <path style="opacity:1" fill="#972d38" d="M451.5 676.5h12v1h-11c.332 37.504-.002 74.837-1 112v-113Z"/>
  <path style="opacity:1" fill="#631823" d="M349.5 741.5c1.33 33.169 1.33 66.502 0 100-1.816 1.235-3.483 1.235-5 0l4-2a2401.328 2401.328 0 0 0 1-98Z"/>
  <path style="opacity:1" fill="#c03d47" d="M619.5 722.5h24v68h-24v-68Z"/>
  <path style="opacity:1" fill="#e53542" d="M620.5 723.5c7.255-.313 14.421.02 21.5 1a662.226 662.226 0 0 1-.5 63 4.457 4.457 0 0 0-2 1.5c-6.325.5-12.658.666-19 .5v-66Z"/>
  <path style="opacity:1" fill="#b1323c" d="M344.5 739.5h1c1.88-.271 3.213.396 4 2 .332 32.838-.002 65.504-1 98v-98c-7.187.325-14.187-.009-21-1 5.858.322 11.525-.011 17-1Z"/>
  <path style="opacity:1" fill="#621926" d="M463.5 677.5v1h-10a3235.88 3235.88 0 0 1-1 113.5c-8.579.816-17.079.649-25.5-.5a3958.7 3958.7 0 0 1-.5-89c-8.184.326-16.184-.008-24-1h25v89c8.184.326 16.184-.008 24-1a3137.289 3137.289 0 0 0 1-112h11Z"/>
  <path style="opacity:1" fill="#c53941" d="M696.5 542.5h25v273h-26v-75c.332-49.503-.001-98.836-1-148-8.15-.993-16.483-1.326-25-1 8.902-1.315 17.902-1.315 27 0v223h24v-271c-8.184.326-16.184-.008-24-1Z"/>
  <path style="opacity:1" fill="#4f202d" d="M678.5 864.5h-24v24a578.495 578.495 0 0 1-47-1c-1.41.368-2.41 1.201-3 2.5a108.41 108.41 0 0 1 1 20.5c-7.674-.166-15.341 0-23 .5-.916.278-1.582.778-2 1.5.323 6.522-.01 12.855-1 19-5.261-.634-10.594-1.634-16-3-9.434 1.595-18.767 1.261-28-1l32-2a130.373 130.373 0 0 0-16-1.5c-.944-2.719-1.277-5.552-1-8.5h-39v-4c2.357.163 4.69-.003 7-.5a98.432 98.432 0 0 0-14-.5v-3h7v-4h24v-8h16v-8c2.357.163 4.69-.003 7-.5 2.493-6.68.159-9.18-7-7.5v-8c7 1.667 9.667-1 8-8 2.619.268 5.119-.065 7.5-1a49.226 49.226 0 0 0 0-14c-6.68-2.493-9.18-.159-7.5 7h-8v-8h-8v-4h-16v-4h-8v-8h8v-8h8v8h8v-8h8v-8h8v24h8c-.163 2.357.003 4.69.5 7 6.68 2.493 9.18.159 7.5-7h8c-1.667 7 1 9.667 8 8v20h8v-4h12a40.914 40.914 0 0 1 .5-9c2.741-1.567 3.908-3.901 3.5-7h-8v-8h8v-4h8v-4h16v-8h-4v-4h-4v-4h-8v-8h32v-8h8v24h-8v8h-8a51.569 51.569 0 0 0 1 7c6.7-.33 13.366.003 20 1 3.373 1.427 5.873 3.76 7.5 7 .216-1.884.883-3.551 2-5 .5 7.659.666 15.326.5 23Z"/>
  
  <path style="opacity:1" fill="#dd8e90" d="M721.5 542.5c.999 91.165 1.333 182.498 1 274h-26v23c-.992-7.816-1.326-15.816-1-24h26v-273Z"/>
 
  <path style="opacity:1" fill="#ca595d" d="M325.5 816.5c.992 7.482 1.325 15.148 1 23h22l-4 2h-1a132.596 132.596 0 0 1-18-1v-24Z"/>
  <path style="opacity:1" fill="#4e1f2b" d="M504.5 907.5v3a98.432 98.432 0 0 1 14 .5c-2.31.497-4.643.663-7 .5v4h39c-.277 2.948.056 5.781 1 8.5 5.364.171 10.698.671 16 1.5l-32 2c9.233 2.261 18.566 2.595 28 1 5.406 1.366 10.739 2.366 16 3h-138v-19h-26v-23h-48v-25h-23c7.178-.667 14.511-1.333 22-2a61.234 61.234 0 0 0 1-15h16v16h40v4h8v-4h8c-.163 2.357.003 4.69.5 7 6.68 2.493 9.18.159 7.5-7h16v16h12v-4h4v4h16v16h-24v8h8v8h8v-8h16c-.268 1.599.066 2.932 1 4Z"/>
  <path style="opacity:1" fill="#e9c9c7" d="M678.5 864.5h1c-7.816.992-15.816 1.326-24 1 .326 8.184-.008 16.184-1 24v-25h24Z"/>
  <path style="opacity:1" fill="#49292e" d="M654.5 888.5v1h-48v23h-26c.418-.722 1.084-1.222 2-1.5 7.659-.5 15.326-.666 23-.5a108.41 108.41 0 0 0-1-20.5c.59-1.299 1.59-2.132 3-2.5a578.495 578.495 0 0 0 47 1Z"/>
  
</svg>
